<svg width="27" height="28" viewBox="0 0 27 28" fill="none" xmlns="http://www.w3.org/2000/svg">
<path d="M20.375 6.66816H20.3875M7.25 1H19.75C23.2018 1 26 3.81969 26 7.29795V19.8939C26 23.3721 23.2018 26.1918 19.75 26.1918H7.25C3.79822 26.1918 1 23.3721 1 19.8939V7.29795C1 3.81969 3.79822 1 7.25 1ZM18.5 12.8024C18.6543 13.8507 18.4766 14.9213 17.9922 15.8619C17.5078 16.8026 16.7414 17.5654 15.802 18.0419C14.8626 18.5183 13.7981 18.6841 12.7597 18.5158C11.7214 18.3474 10.7622 17.8534 10.0185 17.1041C9.2749 16.3547 8.78466 15.3881 8.61758 14.3419C8.4505 13.2956 8.61508 12.2228 9.08791 11.2762C9.56073 10.3296 10.3177 9.55733 11.2512 9.06924C12.1847 8.58115 13.2472 8.4021 14.2875 8.55755C15.3487 8.71611 16.3311 9.21438 17.0896 9.97875C17.8482 10.7431 18.3426 11.7331 18.5 12.8024Z" stroke="white" stroke-width="2" stroke-linecap="round" stroke-linejoin="round"/>
</svg>
