<svg width="39" height="28" viewBox="0 0 39 28" fill="none" xmlns="http://www.w3.org/2000/svg">
<path d="M36.901 5.06428C36.703 4.26723 36.2998 3.53694 35.732 2.94717C35.1643 2.3574 34.4522 1.92905 33.6676 1.70537C30.801 1 19.3343 1 19.3343 1C19.3343 1 7.86762 1 5.00095 1.77255C4.21636 1.99623 3.50425 2.42458 2.93653 3.01435C2.36881 3.60411 1.9656 4.33441 1.76762 5.13146C1.24298 8.06304 0.986346 11.0369 1.00095 14.0158C0.982252 17.017 1.2389 20.0136 1.76762 22.9673C1.98588 23.7396 2.39813 24.4421 2.96453 25.0069C3.53092 25.5718 4.23232 25.9799 5.00095 26.1918C7.86762 26.9644 19.3343 26.9644 19.3343 26.9644C19.3343 26.9644 30.801 26.9644 33.6676 26.1918C34.4522 25.9681 35.1643 25.5398 35.732 24.95C36.2998 24.3603 36.703 23.63 36.901 22.8329C37.4216 19.9234 37.6782 16.9722 37.6676 14.0158C37.6863 11.0145 37.4297 8.01793 36.901 5.06428Z" stroke="white" stroke-width="2" stroke-linecap="round" stroke-linejoin="round"/>
<path d="M15.5843 19.5076L25.1676 14.0158L15.5843 8.52396V19.5076Z" stroke="white" stroke-width="2" stroke-linecap="round" stroke-linejoin="round"/>
</svg>
